<svg viewBox="0 0 64.002 63.996" xml:space="preserve" xmlns="http://www.w3.org/2000/svg" enable-background="new 0 0 64.002 63.996"><circle cx="32.001" cy="31.998" r="31.998" fill="#666666" class="fill-ed7161"></circle><path d="M37.925 25.993c.354 0 .72-.204 1.096-.409a4.061 4.061 0 0 0 1.088-.907v1.077h1.89v-9.728h-1.89v7.385a2.598 2.598 0 0 1-.581.521c-.215.137-.391.205-.529.205-.177 0-.307-.051-.384-.156-.078-.103-.122-.268-.122-.496v-7.459h-1.887v8.13c0 .58.111 1.013.331 1.3.222.293.549.537.988.537zm-6.696.006c1.013 0 1.807-.322 2.386-.779.575-.459.863-1.088.863-1.891v-4.851c0-.716-.295-1.304-.88-1.759-.591-.451-1.346-.68-2.269-.68-1.012 0-1.819.216-2.418.646-.599.432-.898 1.008-.898 1.738v4.867c0 .8.293 1.432.876 1.905.585.473 1.366.804 2.34.804zm-1.057-7.342c0-.184.095-.332.283-.449.193-.113.44-.168.745-.168.331 0 .599.055.803.168.203.117.306.266.306.449v4.611a.613.613 0 0 1-.301.537c-.2.13-.469.193-.808.193-.33 0-.585-.062-.763-.191a.625.625 0 0 1-.266-.539v-4.611zm-7.327 7.363h2.387v-5.812l2.778-8.2h-2.425l-1.478 5.602h-.15l-1.551-5.602h-2.403l2.842 8.462v5.55zm20.577 3.994H20.58c-3.631 0-6.574 2.83-6.574 6.315v5.342c0 3.487 2.943 6.316 6.574 6.316h22.842c3.63 0 6.574-2.829 6.574-6.316v-5.342c0-3.485-2.944-6.315-6.574-6.315zM23.98 35.433h-2.021v8.363h-1.953v-8.363h-2.021v-1.424h5.996v1.424zm6.026 8.48H27.9v-.865a4.571 4.571 0 0 1-1.217.729c-.42.172-.827.253-1.224.253-.488 0-.852-.117-1.101-.354-.244-.234-.369-.586-.369-1.059v-6.603h2.105v6.06c0 .188.046.32.13.404.092.086.237.125.435.125.151 0 .35-.055.586-.165a2.8 2.8 0 0 0 .654-.424v-6h2.105v7.899zm7.973-1.503c0 .517-.163.913-.489 1.19-.323.276-.798.413-1.413.413-.409 0-.772-.052-1.089-.16a2.714 2.714 0 0 1-.89-.495v.562h-2.103v-9.911h2.103V37.2c.282-.221.581-.391.892-.507a2.76 2.76 0 0 1 .961-.173c.658 0 1.16.153 1.507.464.349.313.521.77.521 1.367v4.059zm8.014-2.229h-3.882v1.427c0 .398.064.674.197.83.136.154.365.23.688.23.339 0 .572-.065.707-.196.132-.133.202-.419.202-.864v-.345h2.088v.389c0 .775-.253 1.361-.767 1.756-.505.391-1.265.584-2.276.584-.909 0-1.627-.206-2.147-.623-.521-.412-.785-.987-.785-1.717v-3.403c0-.654.289-1.192.864-1.604.574-.415 1.312-.62 2.222-.62.929 0 1.643.19 2.142.573.499.385.748.934.748 1.651v1.932zm-11.024-2.5c-.148 0-.297.023-.441.071a1.607 1.607 0 0 0-.43.223v4.555c.168.119.333.209.493.261.161.05.326.078.503.078.255 0 .441-.051.562-.156.118-.103.179-.271.179-.502v-3.777c0-.248-.07-.435-.217-.562-.153-.127-.37-.191-.649-.191z" fill-rule="evenodd" clip-rule="evenodd" fill="#ffffff" class="fill-ffffff"></path></svg>